<?xml version="1.0" standalone="no"?>
<!DOCTYPE svg PUBLIC "-//W3C//DTD SVG 20010904//EN"
 "http://www.w3.org/TR/2001/REC-SVG-20010904/DTD/svg10.dtd">
<svg version="1.0" xmlns="http://www.w3.org/2000/svg"
 width="512.000000pt" height="512.000000pt" viewBox="0 0 512.000000 512.000000"
 preserveAspectRatio="xMidYMid meet">
<metadata>
Created by potrace 1.11, written by Peter Selinger 2001-2013
</metadata>
<g transform="translate(0.000000,512.000000) scale(0.100000,-0.100000)"
fill="#000000" stroke="none">
<path d="M2634 4297 c-3 -9 -10 -14 -16 -11 -5 3 -20 -4 -32 -15 -13 -12 -27
-21 -32 -20 -28 5 -46 -2 -40 -16 3 -8 2 -14 -2 -13 -4 1 -17 -2 -30 -6 -19
-6 -21 -10 -11 -22 9 -12 9 -13 -3 -9 -12 5 -67 -40 -60 -51 6 -11 1 -24 -8
-19 -6 3 -7 -1 -4 -9 3 -9 1 -16 -4 -16 -6 0 -9 -9 -7 -21 3 -15 0 -19 -10
-15 -7 2 -16 0 -19 -7 -2 -7 -5 2 -5 18 -1 23 -4 27 -11 15 -8 -12 -10 -11
-10 6 0 23 -43 68 -54 57 -4 -4 -4 1 0 10 4 11 2 17 -4 15 -6 -2 -18 6 -27 17
-9 11 -14 13 -10 5 4 -10 2 -9 -8 3 -16 20 -31 23 -22 5 4 -7 -1 -4 -10 7 -8
11 -21 20 -28 21 -34 3 -38 5 -31 17 6 9 4 9 -8 -1 -13 -10 -17 -10 -21 0 -4
10 -6 10 -6 0 -1 -10 -5 -10 -17 2 -11 11 -21 13 -32 7 -11 -6 -25 -5 -36 1
-15 8 -17 8 -11 -2 6 -10 3 -12 -10 -7 -9 4 -23 3 -29 -1 -19 -15 -48 -23 -40
-11 4 7 0 7 -15 -1 -13 -6 -19 -16 -14 -23 4 -7 0 -7 -10 2 -15 12 -17 11 -17
-2 0 -11 -5 -14 -17 -10 -10 4 -14 2 -9 -5 3 -6 2 -13 -4 -17 -5 -3 -10 -1
-10 5 0 7 -5 6 -14 -2 -8 -7 -13 -17 -13 -23 1 -5 -5 -9 -13 -10 -8 0 -14 -8
-14 -17 1 -10 -5 -15 -16 -13 -13 2 -16 -3 -14 -21 1 -13 -2 -22 -6 -19 -5 3
-11 -4 -15 -15 -4 -11 -11 -17 -17 -14 -6 4 -8 -1 -4 -14 4 -11 2 -23 -5 -27
-8 -6 -7 -10 2 -16 11 -7 10 -9 -5 -9 -16 0 -17 -2 -5 -17 12 -15 12 -16 -3
-11 -14 6 -15 2 -8 -22 6 -21 5 -30 -6 -34 -10 -4 -13 -1 -9 7 4 6 0 4 -9 -7
-8 -10 -19 -15 -24 -12 -5 3 -14 -6 -21 -20 -6 -14 -15 -23 -19 -20 -5 3 -16
-10 -25 -29 -9 -19 -23 -35 -31 -35 -19 0 -27 -25 -13 -39 7 -7 8 -12 2 -11
-5 2 -17 2 -25 1 -13 -1 -13 -2 0 -11 10 -6 11 -10 3 -10 -7 0 -13 -9 -13 -21
0 -13 -4 -18 -12 -13 -10 6 -10 4 0 -8 11 -14 8 -16 -22 -13 -20 1 -33 -2 -30
-6 2 -4 0 -10 -6 -14 -5 -3 -10 -1 -10 5 0 7 -5 6 -14 -2 -8 -7 -11 -17 -8
-23 3 -5 -1 -4 -10 3 -13 10 -18 8 -33 -12 -11 -14 -22 -23 -27 -20 -4 3 -8 0
-8 -6 0 -6 -10 -15 -22 -20 -13 -5 -17 -9 -10 -9 7 -1 10 -6 7 -11 -4 -6 -11
-7 -17 -4 -7 5 -9 1 -5 -9 4 -11 1 -17 -8 -17 -7 0 -17 -5 -21 -12 -5 -7 -3
-8 6 -3 15 9 6 -9 -18 -37 -7 -9 -11 -22 -7 -27 3 -6 0 -11 -7 -11 -9 0 -9 -3
2 -10 12 -8 12 -10 -5 -10 -17 0 -17 -2 -5 -10 13 -9 13 -11 0 -21 -11 -8 -12
-12 -2 -16 6 -2 12 -9 12 -14 0 -6 -4 -7 -10 -4 -14 9 -13 -8 2 -23 7 -7 8
-12 4 -12 -5 0 -3 -6 3 -14 9 -11 9 -16 0 -22 -7 -4 -9 -3 -5 4 3 6 3 13 -2
16 -4 2 -8 -8 -7 -24 0 -23 2 -26 14 -17 12 9 13 9 7 -1 -4 -7 0 -19 9 -28 9
-9 13 -19 10 -22 -3 -4 -10 0 -15 8 -6 8 -10 10 -10 4 0 -6 11 -23 25 -38 14
-15 23 -32 20 -37 -4 -5 6 -14 20 -19 26 -10 26 -10 8 -34 -16 -21 -19 -22
-31 -7 -7 9 -11 10 -7 3 4 -7 -4 -16 -19 -22 -14 -5 -26 -14 -26 -20 0 -6 -5
-8 -11 -5 -6 4 -13 -3 -16 -15 -3 -13 -11 -19 -19 -16 -9 4 -14 -2 -14 -15 0
-11 -4 -17 -10 -14 -5 3 -10 -1 -10 -10 0 -9 -5 -13 -10 -10 -6 4 -13 -7 -16
-24 -4 -17 -10 -29 -14 -26 -4 3 -10 -2 -14 -10 -3 -8 0 -15 7 -15 8 0 8 -3
-2 -9 -8 -5 -12 -18 -8 -31 4 -17 3 -19 -8 -10 -12 10 -13 6 -5 -19 5 -17 5
-29 0 -26 -4 2 -13 -2 -20 -10 -11 -13 -10 -14 3 -10 17 7 19 -25 2 -37 -6 -5
-5 -8 4 -8 11 0 11 -3 0 -17 -12 -14 -12 -16 0 -8 11 6 13 3 9 -13 -4 -12 -2
-22 3 -22 5 0 9 -5 9 -11 0 -5 -6 -7 -12 -3 -9 6 -9 3 0 -9 8 -9 10 -22 6 -29
-6 -9 -3 -9 9 1 16 13 17 12 7 -13 -9 -24 -8 -29 10 -33 11 -3 17 -9 14 -14
-3 -5 0 -9 5 -9 6 0 10 -3 10 -7 -3 -21 2 -33 15 -33 9 0 13 -7 11 -20 -2 -11
1 -20 7 -20 5 0 8 -7 5 -15 -4 -8 -2 -17 4 -20 5 -4 6 -11 3 -17 -5 -7 -2 -8
6 -3 10 6 12 3 8 -13 -4 -12 -1 -25 4 -29 7 -3 8 -1 4 5 -4 7 -2 12 5 12 6 0
9 -8 6 -19 -3 -14 -1 -18 9 -14 8 3 14 -1 14 -11 0 -9 5 -16 11 -16 5 0 7 -5
4 -10 -4 -6 -3 -10 2 -9 22 4 32 -2 27 -16 -5 -11 -2 -13 10 -9 9 4 16 1 16
-6 0 -7 7 -10 16 -6 12 4 15 2 10 -9 -3 -8 -2 -14 2 -14 22 4 32 -2 26 -13 -6
-10 -4 -10 8 0 14 11 18 10 26 -5 11 -22 4 -46 -11 -36 -6 4 -8 0 -4 -10 3 -9
-1 -18 -10 -21 -12 -5 -13 -9 -3 -21 10 -12 9 -16 -4 -21 -9 -3 -13 -10 -10
-15 3 -5 11 -7 17 -3 7 3 4 -1 -5 -9 -10 -8 -15 -17 -11 -21 4 -4 1 -11 -7
-16 -11 -7 -12 -10 -2 -10 7 0 12 -8 10 -18 -2 -11 3 -26 10 -35 9 -10 10 -17
2 -22 -5 -3 -10 -11 -10 -16 0 -6 5 -7 10 -4 6 3 10 -5 10 -18 0 -14 7 -27 15
-31 9 -3 12 -12 8 -22 -4 -12 -3 -15 6 -10 9 6 9 3 -1 -13 -7 -12 -14 -17 -16
-11 -2 6 -9 7 -14 4 -6 -4 -8 -2 -4 4 4 6 -4 12 -21 14 -16 2 -27 8 -26 14 1
6 -5 11 -13 11 -7 0 -14 -5 -14 -10 0 -6 -8 -3 -17 6 -21 18 -31 19 -57 5 -12
-7 -16 -7 -12 0 7 11 -19 10 -30 -1 -4 -4 -14 -1 -22 6 -13 10 -14 9 -7 -2 6
-11 4 -13 -8 -8 -9 3 -18 1 -21 -6 -3 -9 -5 -8 -5 1 -1 7 -5 11 -11 7 -5 -3
-6 -13 -3 -23 6 -16 6 -16 -11 1 -9 9 -19 17 -21 17 -3 0 -1 -8 2 -17 6 -16 5
-17 -12 -3 -11 9 -16 10 -11 3 4 -8 2 -13 -4 -13 -6 0 -9 -4 -5 -9 3 -6 -3 -8
-14 -6 -12 2 -27 -7 -41 -26 -13 -15 -27 -26 -31 -23 -5 3 -9 -2 -9 -10 0 -9
-5 -16 -11 -16 -5 0 -7 -5 -3 -12 5 -8 2 -9 -12 -4 -10 4 -16 4 -12 1 3 -4 0
-18 -7 -32 -8 -15 -12 -30 -9 -35 3 -4 -2 -11 -11 -14 -10 -4 -13 -13 -9 -26
4 -14 2 -18 -5 -14 -10 6 -17 -21 -12 -48 1 -4 -4 -15 -11 -24 -10 -12 -10
-14 0 -8 7 4 12 1 12 -9 0 -10 -5 -13 -12 -9 -10 6 -10 5 -1 -7 7 -9 11 -25 8
-37 -2 -12 3 -29 11 -37 9 -8 11 -15 5 -15 -16 0 -13 -19 4 -37 10 -9 13 -24
10 -37 -5 -15 -4 -17 3 -7 8 11 11 9 17 -8 3 -12 17 -32 30 -46 17 -16 20 -25
12 -28 -7 -3 -2 -6 11 -6 12 -1 22 -7 22 -16 0 -9 6 -12 17 -8 12 5 14 3 8 -7
-6 -10 -3 -12 14 -7 17 4 20 3 11 -8 -8 -9 -6 -14 5 -19 11 -4 14 -2 9 7 -5 8
-2 7 9 -2 9 -7 17 -10 17 -5 0 4 7 -1 16 -12 8 -10 13 -12 9 -4 -4 8 1 6 9 -4
12 -15 16 -16 16 -5 0 8 3 10 8 4 10 -14 45 -16 55 -2 6 8 7 5 3 -6 -3 -10 -6
-25 -6 -33 0 -7 -6 -12 -13 -10 -6 1 -9 1 -4 -1 11 -7 8 -31 -5 -36 -10 -4
-10 -6 0 -6 6 -1 12 -5 12 -11 0 -5 -8 -7 -18 -4 -15 5 -15 4 -1 -5 9 -6 20
-23 24 -38 7 -30 29 -55 58 -66 10 -4 16 -11 12 -16 -3 -5 0 -13 6 -17 8 -5 9
-3 4 6 -6 9 2 11 33 8 22 -2 38 0 36 3 -2 4 3 10 12 13 10 4 13 2 8 -6 -4 -7
-3 -8 4 -4 7 4 12 15 12 24 0 15 2 15 10 2 5 -8 10 -12 11 -7 1 4 3 12 4 17 1
6 3 13 4 18 1 4 6 0 12 -8 8 -12 9 -10 4 9 -5 16 -4 21 4 17 7 -5 8 -1 4 10
-3 10 -2 15 3 12 5 -3 9 7 10 23 1 15 -2 26 -7 24 -4 -3 -5 4 -2 15 3 11 0 20
-6 20 -6 0 -11 5 -11 11 0 5 6 7 13 3 7 -4 9 -3 4 2 -5 5 -13 9 -19 9 -6 0
-15 7 -21 16 -8 12 -5 21 11 37 12 12 28 22 36 22 7 0 28 18 47 39 18 22 37
37 41 35 4 -3 5 2 2 10 -4 10 -1 16 10 16 9 0 13 6 10 15 -4 8 1 17 10 21 9 3
16 10 16 16 0 5 -5 6 -11 3 -6 -4 -5 2 2 13 7 12 15 19 19 17 3 -2 6 12 6 31
1 19 -4 34 -10 35 -6 0 -2 4 9 9 12 5 14 9 6 9 -11 1 -10 5 5 17 19 15 19 16
0 9 -20 -6 -20 -6 0 16 10 12 13 19 7 15 -14 -8 -16 1 -13 48 1 15 -2 26 -7
23 -4 -3 -9 6 -10 20 0 14 -6 29 -13 33 -6 4 -11 10 -11 14 4 25 0 36 -11 30
-7 -4 -8 -3 -4 5 4 6 2 19 -5 27 -10 12 -9 13 5 8 9 -3 16 -10 16 -16 0 -5 5
-6 10 -3 6 3 10 0 10 -7 0 -9 10 -13 30 -12 22 1 30 -2 30 -14 0 -12 3 -13 12
-4 17 17 28 15 28 -7 0 -11 6 -22 13 -24 9 -4 8 -6 -2 -6 -10 -1 -7 -7 7 -20
12 -10 19 -21 15 -24 -3 -4 3 -14 14 -24 10 -10 12 -13 4 -8 -12 9 -12 7 -1
-12 8 -12 17 -20 21 -17 4 2 10 -3 13 -12 3 -8 10 -12 16 -9 6 4 7 -1 3 -11
-4 -12 -3 -15 5 -10 7 4 12 1 13 -6 0 -7 2 -20 4 -29 2 -11 -4 -16 -19 -15
-14 1 -21 -5 -20 -16 1 -10 -1 -17 -5 -16 -19 2 -31 -3 -26 -11 3 -5 -4 -12
-14 -16 -12 -4 -18 -12 -14 -21 4 -10 0 -12 -11 -8 -9 4 -16 3 -14 -2 1 -5 -3
-18 -9 -29 -5 -11 -9 -30 -8 -42 1 -12 -2 -20 -6 -17 -12 7 -24 -18 -20 -44 1
-13 -3 -29 -9 -37 -8 -10 -8 -15 1 -21 8 -5 9 -3 4 6 -5 9 -4 11 4 6 9 -6 9
-11 0 -22 -6 -8 -8 -14 -3 -14 4 0 3 -5 -4 -12 -7 -7 -12 -17 -12 -22 0 -6 5
-4 11 4 8 11 9 7 6 -18 -2 -18 1 -36 6 -39 6 -4 7 -1 2 7 -5 9 -4 11 4 6 9 -6
9 -11 0 -22 -7 -9 -8 -14 -3 -13 21 4 28 -2 14 -11 -9 -6 -10 -10 -3 -10 7 0
17 -10 23 -22 11 -22 10 -22 -4 -4 -19 24 -21 8 -2 -16 7 -10 16 -15 19 -11 6
6 11 -12 8 -30 0 -4 4 -7 10 -7 5 0 7 -4 4 -10 -3 -6 1 -7 10 -4 10 4 15 2 13
-7 -2 -8 7 -15 20 -17 12 -2 22 -10 22 -18 0 -16 39 -35 54 -26 5 3 6 0 2 -6
-4 -7 -1 -12 9 -12 9 0 13 -5 9 -11 -4 -7 1 -7 16 1 15 8 20 8 16 1 -8 -12 1
-14 47 -13 23 1 26 -2 17 -13 -9 -11 -7 -12 9 -8 12 3 19 9 16 13 -5 9 68 6
83 -4 7 -4 15 -1 18 8 5 12 10 13 25 5 11 -5 19 -6 18 -2 -3 20 2 24 16 13 13
-11 14 -10 10 3 -4 8 -1 18 6 23 8 4 10 3 5 -4 -4 -7 -1 -12 9 -12 9 0 14 4
11 9 -6 8 30 25 47 22 5 -1 6 3 2 9 -3 5 -1 10 5 10 6 0 8 5 5 10 -3 6 -1 10
4 10 12 0 51 36 51 48 0 4 4 7 9 7 5 0 13 4 18 9 5 5 3 6 -4 2 -7 -4 -13 -2
-13 4 0 6 10 15 23 20 12 5 17 9 11 9 -6 1 -11 8 -11 16 0 8 5 11 10 8 6 -4 8
3 4 16 -4 17 -3 20 8 11 10 -8 13 -7 11 7 0 10 -5 21 -11 25 -5 4 3 8 18 8 16
0 26 -4 22 -10 -3 -5 -1 -10 4 -10 6 0 11 -7 11 -15 0 -8 5 -15 11 -15 5 0 7
-4 4 -10 -4 -6 1 -7 11 -3 12 4 15 3 10 -5 -4 -7 -1 -12 8 -12 9 0 16 -5 16
-11 0 -5 4 -7 10 -4 6 3 10 -1 10 -9 0 -9 7 -13 20 -11 11 2 23 -1 26 -7 5 -7
2 -8 -6 -3 -9 5 -11 4 -6 -4 6 -9 11 -9 24 1 12 10 14 10 8 1 -6 -12 10 -16
40 -12 4 0 11 -5 15 -13 5 -7 9 -8 9 -2 0 6 7 11 15 11 11 0 12 -4 4 -13 -8
-10 -6 -12 10 -9 15 3 21 -1 21 -13 0 -15 2 -15 10 -2 8 13 10 12 10 -3 0 -14
5 -17 20 -12 16 5 19 3 13 -12 -6 -16 -5 -16 10 -4 15 11 17 11 17 -1 0 -10 8
-13 30 -10 21 3 30 0 30 -9 0 -11 2 -11 10 1 5 8 10 10 10 5 0 -6 22 -11 49
-11 28 0 48 3 45 7 -2 4 1 11 7 15 7 4 9 3 5 -4 -3 -6 -2 -13 3 -16 5 -3 11 1
15 9 3 8 10 15 16 15 6 0 8 -6 5 -12 -4 -7 0 -5 8 5 16 20 31 23 22 5 -4 -7
-1 -6 7 2 7 8 22 17 33 18 11 2 24 10 28 18 5 8 13 11 19 8 7 -4 8 -2 4 4 -4
7 -2 12 4 12 6 0 8 5 4 13 -5 8 -2 7 9 -2 15 -12 17 -12 11 4 -5 11 -3 16 2
12 6 -3 16 3 24 13 8 10 18 16 24 13 6 -3 6 -1 0 7 -9 9 -7 17 7 31 11 11 17
25 13 31 -4 7 -3 8 4 4 7 -4 12 -1 12 9 0 11 4 13 13 8 14 -9 67 -11 67 -2 0
10 34 7 50 -5 8 -5 12 -6 8 -2 -8 10 41 40 50 31 3 -3 11 4 19 14 8 12 21 18
34 16 12 -3 19 -2 16 1 -3 3 2 14 11 24 13 16 19 17 31 7 11 -9 13 -9 8 0 -4
6 -3 14 3 18 5 3 10 -1 10 -10 0 -9 5 -13 10 -10 6 3 10 0 10 -7 0 -9 3 -9 10
2 6 10 10 11 10 3 0 -7 9 -13 21 -13 13 0 18 -4 13 -12 -5 -9 -2 -9 9 1 11 9
17 10 17 2 0 -6 5 -11 11 -11 5 0 7 6 3 12 -5 9 -2 9 9 -1 9 -7 17 -10 17 -6
0 4 8 1 17 -6 14 -12 16 -12 8 0 -6 11 -3 13 12 9 11 -3 28 -1 37 4 11 6 16 5
16 -4 0 -10 2 -10 9 1 5 8 16 11 24 8 11 -4 14 -1 11 7 -4 10 3 13 26 11 27
-2 29 -1 18 14 -7 9 -8 13 -4 9 5 -4 16 -2 24 5 9 6 13 7 9 1 -3 -6 0 -11 7
-11 8 0 12 6 9 14 -3 7 -1 13 4 13 6 0 15 10 22 22 11 23 11 23 6 -2 -6 -23
-5 -24 6 -5 7 11 20 26 28 33 13 11 13 12 1 7 -8 -4 -5 2 6 12 12 10 25 28 29
41 4 13 11 20 18 15 7 -4 6 0 -2 10 -11 14 -11 18 3 23 9 3 16 10 16 16 0 5
-6 6 -12 2 -9 -6 -9 -3 0 9 8 9 10 22 6 29 -5 8 -1 8 11 -2 17 -14 18 -14 7 6
-8 16 -8 24 0 32 9 9 8 12 -2 12 -13 0 -13 2 0 10 12 8 12 10 1 10 -8 0 -11 3
-8 6 3 4 1 16 -5 28 -10 19 -10 20 6 7 15 -12 17 -12 14 0 -2 8 -10 19 -18 26
-11 9 -12 12 -2 13 7 0 10 5 7 10 -4 6 -10 8 -14 6 -4 -3 -8 1 -8 9 0 8 4 12
9 9 5 -4 4 3 -3 14 -7 12 -17 18 -23 15 -5 -4 -7 1 -3 11 5 11 0 24 -11 34
-11 11 -12 14 -2 8 8 -5 0 5 -17 21 -18 17 -33 35 -33 41 0 6 -5 14 -12 18 -7
5 -8 3 -3 -5 5 -10 2 -9 -13 0 -12 7 -18 17 -15 22 3 5 -3 6 -14 3 -17 -5 -20
-2 -18 18 2 15 -2 24 -8 23 -16 -3 -21 53 -6 67 9 8 10 8 5 -1 -4 -7 -2 -13 3
-13 6 0 11 9 11 21 0 11 5 17 10 14 6 -3 10 -1 10 5 0 6 4 8 10 5 5 -3 7 0 4
8 -3 8 3 20 12 28 16 12 17 12 11 -4 -4 -11 -3 -16 4 -12 6 4 8 13 5 21 -3 8
5 23 17 35 20 19 21 20 2 14 -17 -6 -16 -4 4 13 18 15 21 21 10 25 -11 4 -11
6 -1 6 7 1 10 6 7 11 -3 6 -1 10 6 10 9 0 9 3 0 14 -9 11 -9 16 0 22 8 5 9 3
4 -6 -5 -9 -4 -11 4 -6 9 6 9 11 0 22 -9 11 -8 14 2 14 12 0 12 2 0 9 -11 7
-11 9 0 14 12 5 12 6 0 6 -8 1 -3 9 13 22 14 11 30 18 35 15 5 -3 8 2 7 12 0
10 5 16 13 14 8 -2 11 3 8 12 -4 9 -1 18 5 22 7 4 8 3 4 -4 -4 -7 -2 -12 3
-12 6 0 11 6 11 14 0 9 8 12 25 8 15 -2 22 -9 18 -16 -4 -6 1 -5 10 3 13 10
17 10 17 1 0 -7 6 -10 14 -7 7 3 23 -1 35 -9 19 -14 20 -13 14 2 -5 13 -3 15
7 9 16 -10 70 -13 70 -3 0 3 9 4 20 1 11 -3 20 0 20 6 0 5 7 8 15 5 8 -4 15
-1 15 5 0 6 5 11 11 11 5 0 8 -4 5 -8 -3 -5 1 -9 8 -9 8 0 12 7 9 14 -4 10 1
13 22 9 24 -4 25 -3 13 11 -9 12 -9 15 0 9 6 -4 12 -3 12 3 0 5 8 8 17 7 18
-3 53 33 53 53 0 6 5 10 12 9 7 -2 12 2 13 9 0 7 9 19 20 28 11 9 13 13 6 9
-9 -4 -4 7 9 26 13 19 18 30 9 26 -9 -5 -9 -3 2 6 9 7 14 19 11 27 -2 8 0 11
5 8 5 -3 10 0 10 8 0 8 -4 12 -8 10 -4 -3 -6 3 -5 12 2 9 8 19 14 21 7 2 9 9
5 15 -11 18 -11 47 0 47 6 0 2 10 -9 22 -19 21 -19 21 0 14 20 -7 20 -7 0 15
-11 14 -13 19 -4 14 13 -8 13 -7 0 10 -8 10 -14 20 -12 22 7 10 0 23 -10 17
-9 -5 -9 -2 1 9 12 15 11 17 -3 17 -10 0 -14 5 -11 10 3 6 1 10 -5 10 -6 0 -8
5 -5 10 4 6 -10 26 -30 44 -25 23 -32 35 -23 39 8 3 6 6 -6 6 -10 1 -27 11
-37 23 -13 14 -19 16 -19 7 0 -11 -2 -11 -9 -1 -4 7 -15 14 -24 16 -9 1 -25
10 -37 21 -11 10 -23 15 -27 12 -3 -4 -15 1 -25 10 -17 15 -18 15 -13 1 5 -13
2 -15 -15 -11 -16 4 -18 8 -8 14 7 5 8 9 3 9 -6 0 -21 -7 -33 -16 -17 -12 -22
-12 -20 -2 2 7 -3 11 -12 9 -8 -2 -30 -6 -47 -9 -22 -3 -33 -10 -34 -21 0 -12
-2 -12 -9 4 -5 11 -9 14 -9 7 -1 -7 -6 -10 -11 -7 -6 3 -13 0 -16 -8 -3 -9
-16 -14 -29 -12 -14 1 -22 -1 -19 -6 2 -4 -5 -13 -16 -19 -14 -8 -19 -17 -15
-28 5 -14 4 -14 -13 1 -10 9 -22 14 -25 10 -4 -3 -7 -1 -7 5 0 7 6 12 13 12 9
0 8 3 -2 9 -11 7 -11 9 0 14 12 5 12 6 0 6 -10 1 -11 4 -2 15 9 11 9 16 0 22
-8 5 -9 3 -4 -6 5 -8 4 -11 -2 -7 -6 4 -9 20 -7 37 2 19 0 29 -6 25 -6 -3 -10
3 -10 14 0 12 -6 21 -12 21 -10 0 -10 2 0 9 11 7 10 9 -3 15 -9 3 -14 9 -12
13 7 11 -19 33 -29 25 -4 -4 -4 -1 0 6 4 7 1 15 -7 18 -8 3 -14 13 -12 22 2 9
4 21 4 25 1 5 5 6 9 3 5 -3 14 4 22 14 8 10 18 16 24 13 5 -4 7 1 3 11 -4 10
-3 15 3 11 6 -3 10 -1 10 5 0 6 5 8 13 4 8 -5 7 -2 -2 9 -12 15 -12 17 4 10
15 -5 17 -3 12 11 -4 9 -3 15 2 12 11 -7 24 40 16 57 -4 7 0 4 8 -6 14 -17 15
-15 13 22 -2 25 1 38 7 34 6 -4 8 2 5 15 -4 12 -1 22 4 22 7 0 6 5 -1 14 -9
10 -7 16 5 27 14 12 14 14 -2 26 -13 9 -14 13 -4 13 9 0 7 5 -6 15 -18 14 -18
15 0 9 16 -6 17 -4 8 13 -6 11 -8 23 -5 27 3 3 0 6 -9 6 -8 0 -15 7 -15 15 0
11 4 12 14 3 11 -8 12 -7 7 6 -3 9 -12 16 -19 16 -8 0 -12 8 -10 20 2 11 -1
23 -7 26 -7 4 -8 2 -4 -4 4 -7 5 -12 2 -12 -3 0 -12 14 -21 30 -9 17 -13 30
-9 30 4 0 1 7 -6 15 -7 8 -22 15 -34 15 -17 0 -18 2 -6 10 13 8 12 10 -2 10
-10 0 -18 5 -18 10 0 6 -7 10 -16 10 -9 0 -12 5 -8 13 5 7 0 6 -11 -3 -10 -8
-16 -10 -13 -5 3 6 0 16 -8 23 -9 8 -14 9 -14 2 0 -6 -5 -8 -10 -5 -6 4 -8 10
-6 14 3 4 0 8 -7 9 -43 6 -64 10 -82 16 -37 14 -46 16 -41 7 3 -5 -5 -11 -19
-13 -13 -3 -22 -1 -19 3 3 5 0 9 -5 9 -6 0 -11 -6 -12 -12 0 -7 -4 -4 -9 7 -8
18 -9 18 -9 -5 -1 -14 -4 -20 -9 -14 -10 15 -44 14 -38 -2 3 -8 -2 -11 -15 -9
-10 2 -19 -2 -19 -8 0 -7 -4 -6 -10 3 -8 13 -10 12 -10 -4 0 -16 -2 -17 -17
-5 -10 7 -15 9 -10 4 7 -9 -20 -45 -35 -45 -5 0 -28 -18 -50 -40 -23 -22 -38
-40 -33 -40 6 0 4 -4 -4 -9 -8 -5 -16 -19 -18 -32 -2 -12 -8 -28 -14 -35 -6
-7 -8 -18 -4 -24 3 -5 2 -10 -4 -10 -6 0 -8 -7 -5 -15 4 -8 1 -15 -5 -15 -6 0
-11 -5 -11 -11 0 -5 6 -7 13 -3 8 6 8 3 -1 -9 -8 -9 -10 -22 -6 -29 4 -7 -3
-4 -16 7 -13 11 -20 14 -16 8 4 -7 2 -13 -3 -13 -6 0 -11 7 -11 16 0 10 -6 14
-15 11 -8 -4 -17 -1 -21 5 -4 6 -3 8 4 4 6 -4 12 4 14 21 2 16 9 29 16 29 23
3 24 4 13 18 -9 11 -8 17 7 28 10 7 18 21 16 31 -1 9 2 15 7 11 5 -3 9 0 9 6
0 6 5 8 11 4 8 -5 9 -2 1 12 -8 14 -6 21 6 32 10 7 12 11 6 8 -15 -8 -26 21
-12 30 7 4 8 3 4 -4 -5 -8 -1 -10 10 -5 15 5 15 7 0 15 -9 5 -13 14 -9 21 10
17 11 47 1 47 -5 0 -7 4 -3 9 3 5 1 12 -4 16 -6 3 -7 13 -4 21 3 9 0 20 -8 25
-11 7 -11 9 -1 9 7 0 10 5 7 10 -4 6 -11 7 -17 4 -6 -4 -8 1 -3 16 6 18 4 22
-8 17 -11 -4 -13 0 -10 14 3 11 -1 21 -11 25 -9 3 -13 10 -10 15 3 5 2 9 -3 8
-4 -1 -15 -1 -23 0 -13 1 -13 2 0 11 13 8 13 10 -2 10 -9 0 -22 8 -27 18 -6 9
-11 13 -11 9 0 -4 -11 4 -25 18 -29 28 -36 31 -31 13 1 -7 1 -10 -1 -5 -3 4
-11 7 -18 7 -8 0 -17 4 -20 10 -4 6 1 7 12 4 10 -3 3 3 -14 15 -18 11 -33 27
-33 34 0 8 -11 19 -25 25 -14 6 -25 17 -25 23 0 6 -7 8 -16 5 -14 -5 -15 -4
-4 9 11 13 10 14 -3 10 -8 -4 -18 -1 -22 4 -3 6 -11 8 -17 5 -7 -4 -8 -2 -4 4
4 7 1 12 -9 12 -9 0 -13 5 -9 11 4 8 0 8 -15 0 -17 -10 -22 -9 -27 3 -3 9 -12
12 -21 9 -12 -5 -14 -3 -8 8 6 11 5 12 -6 2 -14 -14 -33 -18 -26 -5 3 4 -8 7
-23 7 -16 1 -26 -3 -24 -7 3 -4 0 -8 -5 -8 -6 0 -11 5 -11 11 0 8 -4 8 -13 0
-10 -8 -17 -7 -25 1 -8 8 -13 7 -18 -5z m-184 -131 c0 -2 -8 -10 -17 -17 -16
-13 -17 -12 -4 4 13 16 21 21 21 13z m-44 -378 c4 -7 3 -8 -4 -4 -7 4 -12 2
-12 -3 0 -6 7 -11 15 -11 9 0 12 -6 8 -17 -4 -11 -3 -14 5 -9 7 4 12 1 12 -8
0 -9 5 -16 10 -16 6 0 10 -6 10 -13 0 -6 14 -18 30 -25 17 -8 30 -20 30 -28 0
-9 4 -13 9 -10 5 3 11 0 14 -7 3 -8 -1 -14 -9 -14 -8 0 -14 5 -14 11 0 6 -5 4
-10 -4 -7 -11 -10 -11 -10 -2 0 7 -5 10 -12 6 -7 -4 -8 -3 -4 4 3 6 -2 16 -13
21 -11 6 -22 20 -26 30 -4 13 -12 17 -25 14 -12 -3 -22 1 -26 11 -3 9 -10 14
-14 11 -5 -3 -12 0 -16 6 -5 8 -3 9 6 4 9 -5 10 -2 5 14 -4 13 -2 21 5 21 6 0
9 4 6 9 -4 5 0 12 6 14 7 3 14 6 15 6 1 1 5 -4 9 -11z m1479 -57 c3 -5 2 -12
-3 -15 -5 -3 -9 1 -9 9 0 17 3 19 12 6z m555 -1375 c0 -2 -8 -10 -17 -17 -16
-13 -17 -12 -4 4 13 16 21 21 21 13z m-3010 -1110 c0 -2 -8 -10 -17 -17 -16
-13 -17 -12 -4 4 13 16 21 21 21 13z"/>
<path d="M2482 3656 c7 -8 15 -12 17 -11 5 6 -10 25 -20 25 -5 0 -4 -6 3 -14z"/>
<path d="M2555 4270 c4 -6 11 -8 16 -5 14 9 11 15 -7 15 -8 0 -12 -5 -9 -10z"/>
<path d="M3380 3790 c-9 -6 -10 -10 -3 -10 6 0 15 5 18 10 8 12 4 12 -15 0z"/>
<path d="M587 1263 c3 -8 -3 -13 -15 -13 -23 0 -55 -38 -45 -53 4 -6 0 -8 -9
-5 -18 7 -21 -20 -4 -41 8 -11 8 -13 0 -8 -7 4 -14 0 -18 -8 -3 -8 -1 -15 4
-15 5 0 7 -7 4 -15 -5 -11 -2 -13 12 -8 11 4 15 3 11 -4 -9 -15 2 -44 14 -37
5 3 6 -3 2 -12 -5 -14 -3 -16 11 -11 10 4 15 3 11 -3 -3 -6 1 -10 9 -10 9 0
16 -3 16 -7 0 -5 18 -8 39 -8 22 0 37 4 34 8 -3 5 3 7 13 5 11 -2 18 2 17 9
-2 7 4 10 12 7 8 -4 15 -1 15 6 0 6 5 8 10 5 6 -4 10 -3 9 2 -4 21 2 34 13 27
6 -4 8 -3 5 3 -3 5 0 21 8 36 8 16 10 29 4 33 -5 3 -7 10 -4 15 4 5 0 9 -7 9
-9 0 -9 3 2 10 13 8 13 10 -2 10 -9 0 -20 5 -24 12 -5 8 -2 9 11 4 15 -5 16
-4 5 9 -7 8 -19 15 -26 15 -8 0 -14 7 -14 16 0 14 -3 14 -15 4 -13 -11 -14
-10 -9 5 5 12 4 16 -3 12 -6 -4 -14 -1 -16 5 -3 7 -6 4 -6 -7 -1 -16 -3 -17
-10 -6 -12 18 -70 21 -64 4z"/>
</g>
</svg>
